<svg width="60" height="60" viewBox="0 0 60 60" fill="none" xmlns="http://www.w3.org/2000/svg">
<rect width="60" height="60" rx="30" fill="#FEE2DF"/>
<path d="M40.1523 25.4541C41.8326 25.4541 42.6732 25.4547 43.2324 25.9277C43.3172 25.9994 43.3961 26.0783 43.4678 26.1631C43.9406 26.7223 43.9404 27.5624 43.9404 29.2422C43.9404 30.9224 43.9408 31.7631 43.4678 32.3223C43.396 32.4071 43.3173 32.4859 43.2324 32.5576C43.0164 32.7404 42.7579 32.8511 42.4258 32.9199V43.0303C42.4258 44.7444 42.425 45.6012 41.8926 46.1338C41.3601 46.6663 40.5032 46.667 38.7891 46.667H21.8193C20.1052 46.667 19.2484 46.6663 18.7158 46.1338C18.1833 45.6013 18.1826 44.7445 18.1826 43.0303V32.9199C17.8505 32.8511 17.592 32.7403 17.376 32.5576C17.2912 32.4859 17.2124 32.4071 17.1406 32.3223C16.6676 31.7631 16.668 30.9224 16.668 29.2422C16.668 27.5623 16.6678 26.7223 17.1406 26.1631C17.2124 26.0783 17.2912 25.9995 17.376 25.9277C17.9352 25.4547 18.7758 25.4541 20.4561 25.4541H40.1523ZM40.8301 13.333C41.7109 13.333 42.4258 14.0479 42.4258 14.9287C42.4254 20.742 36.1171 25.4541 30.3037 25.4541C30.304 19.6408 35.0169 13.3333 40.8301 13.333ZM24.917 13.333C27.8922 13.333 30.3037 15.7455 30.3037 18.7207V25.4541C23.6095 25.4539 18.1826 20.0272 18.1826 13.333H24.917Z" fill="url(#paint0_linear_116_801)"/>
<defs>
<linearGradient id="paint0_linear_116_801" x1="33.1888" y1="49.3337" x2="28.5537" y2="11.2125" gradientUnits="userSpaceOnUse">
<stop stop-color="#FFAFA4" stop-opacity="0"/>
<stop offset="1" stop-color="#FF7663"/>
</linearGradient>
</defs>
</svg>
