<svg width="81" height="80" viewBox="0 0 81 80" fill="none" xmlns="http://www.w3.org/2000/svg">
<rect x="0.5" width="80" height="80" rx="40" fill="white"/>
<path d="M54.0352 33.9395C56.2753 33.9395 57.396 33.9387 58.1416 34.5693C58.2547 34.665 58.3594 34.7707 58.4551 34.8838C59.0857 35.6294 59.0859 36.7492 59.0859 38.9893C59.0859 41.2295 59.0858 42.3501 58.4551 43.0957C58.3595 43.2087 58.2546 43.3136 58.1416 43.4092C57.8534 43.653 57.5087 43.8008 57.0654 43.8926V57.374C57.0654 59.6595 57.0654 60.8026 56.3555 61.5127C55.6454 62.2227 54.5023 62.2227 52.2168 62.2227H29.5908C27.3055 62.2227 26.1622 62.2225 25.4521 61.5127C24.7421 60.8027 24.7422 59.6596 24.7422 57.374V43.8926C24.2993 43.8008 23.9551 43.6529 23.667 43.4092C23.554 43.3136 23.4491 43.2087 23.3535 43.0957C22.7228 42.3501 22.7227 41.2295 22.7227 38.9893C22.7227 36.7492 22.7228 35.6294 23.3535 34.8838C23.4492 34.7707 23.5539 34.665 23.667 34.5693C24.4126 33.9389 25.5327 33.9395 27.7725 33.9395H54.0352ZM54.9385 17.7773C56.1128 17.7774 57.0643 18.729 57.0645 19.9033C57.0645 27.6547 48.6547 33.9385 40.9033 33.9385C40.9034 26.1872 47.1872 17.7773 54.9385 17.7773ZM33.7207 17.7773C37.6877 17.7774 40.9033 20.993 40.9033 24.96V33.9385C31.9777 33.9384 24.7424 26.703 24.7422 17.7773H33.7207Z" fill="url(#paint0_linear_116_740)"/>
<defs>
<linearGradient id="paint0_linear_116_740" x1="44.7504" y1="65.7783" x2="38.5703" y2="14.95" gradientUnits="userSpaceOnUse">
<stop stop-color="#370B27" stop-opacity="0"/>
<stop offset="1" stop-color="#370B27"/>
</linearGradient>
</defs>
</svg>
