<svg width="106" height="106" viewBox="0 0 106 106" fill="none" xmlns="http://www.w3.org/2000/svg">
<mask id="path-1-outside-1_116_282" maskUnits="userSpaceOnUse" x="10.3649" y="16.869" width="12.8046" height="12.5376" fill="black">
<rect fill="white" x="10.3649" y="16.869" width="12.8046" height="12.5376"/>
<path d="M11.0826 23.1081L15.6705 17.5591L22.1443 22.9117L21.5326 23.6516L15.7524 18.8725L12.3879 22.9417L18.1681 27.7208L17.5564 28.4607L11.0826 23.1081Z"/>
</mask>
<path d="M11.0826 23.1081L15.6705 17.5591L22.1443 22.9117L21.5326 23.6516L15.7524 18.8725L12.3879 22.9417L18.1681 27.7208L17.5564 28.4607L11.0826 23.1081Z" fill="#370B27"/>
<path d="M11.0826 23.1081L10.9107 22.966L10.7686 23.1379L10.9405 23.28L11.0826 23.1081ZM15.6705 17.5591L15.8126 17.3872L15.6407 17.2451L15.4986 17.417L15.6705 17.5591ZM22.1443 22.9117L22.3162 23.0538L22.4583 22.8819L22.2864 22.7398L22.1443 22.9117ZM21.5326 23.6516L21.3905 23.8234L21.5623 23.9656L21.7045 23.7937L21.5326 23.6516ZM15.7524 18.8725L15.8945 18.7006L15.7226 18.5585L15.5805 18.7304L15.7524 18.8725ZM12.3879 22.9417L12.216 22.7996L12.0739 22.9715L12.2458 23.1136L12.3879 22.9417ZM18.1681 27.7208L18.34 27.8629L18.4821 27.691L18.3102 27.5489L18.1681 27.7208ZM17.5564 28.4607L17.4143 28.6326L17.5862 28.7747L17.7283 28.6028L17.5564 28.4607ZM11.0826 23.1081L11.2545 23.2502L15.8424 17.7013L15.6705 17.5591L15.4986 17.417L10.9107 22.966L11.0826 23.1081ZM15.6705 17.5591L15.5284 17.731L22.0022 23.0836L22.1443 22.9117L22.2864 22.7398L15.8126 17.3872L15.6705 17.5591ZM22.1443 22.9117L21.9724 22.7696L21.3607 23.5094L21.5326 23.6516L21.7045 23.7937L22.3162 23.0538L22.1443 22.9117ZM21.5326 23.6516L21.6747 23.4797L15.8945 18.7006L15.7524 18.8725L15.6103 19.0444L21.3905 23.8234L21.5326 23.6516ZM15.7524 18.8725L15.5805 18.7304L12.216 22.7996L12.3879 22.9417L12.5598 23.0838L15.9243 19.0146L15.7524 18.8725ZM12.3879 22.9417L12.2458 23.1136L18.026 27.8927L18.1681 27.7208L18.3102 27.5489L12.53 22.7698L12.3879 22.9417ZM18.1681 27.7208L17.9962 27.5787L17.3845 28.3186L17.5564 28.4607L17.7283 28.6028L18.34 27.8629L18.1681 27.7208ZM17.5564 28.4607L17.6985 28.2888L11.2247 22.9362L11.0826 23.1081L10.9405 23.28L17.4143 28.6326L17.5564 28.4607Z" fill="#370B27" mask="url(#path-1-outside-1_116_282)"/>
<mask id="path-3-outside-2_116_282" maskUnits="userSpaceOnUse" x="18.5447" y="7.96822" width="13.9528" height="13.9528" fill="black">
<rect fill="white" x="18.5447" y="7.96822" width="13.9528" height="13.9528"/>
<path d="M22.0871 17.1732C20.6127 15.1148 20.9538 12.5825 22.8659 11.2128C24.817 9.81524 27.27 10.2723 28.7794 12.3795C30.2748 14.4672 29.9182 16.9367 27.9671 18.3343C26.0647 19.697 23.5406 19.2023 22.0871 17.1732ZM22.8605 16.6044C24.0205 18.2238 25.9629 18.6481 27.436 17.5929C28.9578 16.5028 29.1799 14.5872 27.9919 12.9288C26.797 11.2606 24.9286 10.8571 23.397 11.9542C21.9141 13.0164 21.6936 14.9752 22.8605 16.6044Z"/>
</mask>
<path d="M22.0871 17.1732C20.6127 15.1148 20.9538 12.5825 22.8659 11.2128C24.817 9.81524 27.27 10.2723 28.7794 12.3795C30.2748 14.4672 29.9182 16.9367 27.9671 18.3343C26.0647 19.697 23.5406 19.2023 22.0871 17.1732ZM22.8605 16.6044C24.0205 18.2238 25.9629 18.6481 27.436 17.5929C28.9578 16.5028 29.1799 14.5872 27.9919 12.9288C26.797 11.2606 24.9286 10.8571 23.397 11.9542C21.9141 13.0164 21.6936 14.9752 22.8605 16.6044Z" fill="#370B27"/>
<path d="M22.0871 17.1732L22.2684 17.0433C20.8576 15.0737 21.1948 12.6842 22.9958 11.3941L22.8659 11.2128L22.736 11.0315C20.7128 12.4807 20.3677 15.1559 21.9058 17.3031L22.0871 17.1732ZM22.8659 11.2128L22.9958 11.3941C23.9241 10.7292 24.9633 10.5101 25.9458 10.7008C26.9293 10.8917 27.8726 11.4966 28.598 12.5094L28.7794 12.3795L28.9607 12.2496C28.1767 11.1552 27.1389 10.478 26.0308 10.2629C24.9216 10.0477 23.7588 10.2989 22.736 11.0315L22.8659 11.2128ZM28.7794 12.3795L28.598 12.5094C30.0282 14.5059 29.6794 16.8334 27.8372 18.153L27.9671 18.3343L28.0969 18.5156C30.1569 17.0401 30.5214 14.4284 28.9607 12.2496L28.7794 12.3795ZM27.9671 18.3343L27.8372 18.153C26.0453 19.4365 23.6578 18.983 22.2684 17.0433L22.0871 17.1732L21.9058 17.3031C23.4234 19.4217 26.0841 19.9574 28.0969 18.5156L27.9671 18.3343ZM22.8605 16.6044L22.6792 16.7343C23.8985 18.4364 25.9761 18.913 27.5659 17.7742L27.436 17.5929L27.3061 17.4116C25.9497 18.3832 24.1426 18.0112 23.0419 16.4745L22.8605 16.6044ZM27.436 17.5929L27.5659 17.7742C28.3754 17.1944 28.8467 16.3878 28.9516 15.5001C29.0563 14.6146 28.7947 13.6664 28.1732 12.7989L27.9919 12.9288L27.8106 13.0586C28.3771 13.8495 28.5984 14.6883 28.5086 15.4478C28.4191 16.2051 28.0184 16.9013 27.3061 17.4116L27.436 17.5929ZM27.9919 12.9288L28.1732 12.7989C27.5488 11.9271 26.7379 11.372 25.8672 11.1864C24.9943 11.0003 24.0808 11.1901 23.2671 11.7729L23.397 11.9542L23.5269 12.1356C24.2448 11.6213 25.0313 11.4643 25.7742 11.6226C26.5194 11.7815 27.2401 12.2622 27.8106 13.0586L27.9919 12.9288ZM23.397 11.9542L23.2671 11.7729C21.6675 12.9187 21.453 15.0224 22.6792 16.7343L22.8605 16.6044L23.0419 16.4745C21.9341 14.9281 22.1607 13.1141 23.5269 12.1356L23.397 11.9542Z" fill="#370B27" mask="url(#path-3-outside-2_116_282)"/>
<mask id="path-5-outside-3_116_282" maskUnits="userSpaceOnUse" x="30.8204" y="2.76911" width="11.8688" height="12.4682" fill="black">
<rect fill="white" x="30.8204" y="2.76911" width="11.8688" height="12.4682"/>
<path d="M32.7019 7.52792L35.008 13.8909L34.1055 14.218L31.2433 6.32069L32.3828 5.90771L37.7733 11.7655L38.1478 3.81831L39.276 3.40942L42.1382 11.3068L41.2357 11.6339L38.9377 5.29344L38.5393 12.6111L37.7157 12.9096L32.7019 7.52792Z"/>
</mask>
<path d="M32.7019 7.52792L35.008 13.8909L34.1055 14.218L31.2433 6.32069L32.3828 5.90771L37.7733 11.7655L38.1478 3.81831L39.276 3.40942L42.1382 11.3068L41.2357 11.6339L38.9377 5.29344L38.5393 12.6111L37.7157 12.9096L32.7019 7.52792Z" fill="#370B27"/>
<path d="M32.7019 7.52792L32.8651 7.37589L32.4923 7.60391L32.7019 7.52792ZM35.008 13.8909L35.084 14.1006L35.2937 14.0246L35.2177 13.8149L35.008 13.8909ZM34.1055 14.218L33.8958 14.294L33.9718 14.5037L34.1815 14.4277L34.1055 14.218ZM31.2433 6.32069L31.1673 6.111L30.9576 6.187L31.0336 6.39668L31.2433 6.32069ZM32.3828 5.90771L32.5469 5.75669L32.4464 5.64744L32.3068 5.69803L32.3828 5.90771ZM37.7733 11.7655L37.6092 11.9165L37.971 12.3096L37.9961 11.776L37.7733 11.7655ZM38.1478 3.81831L38.0718 3.60863L37.932 3.65929L37.925 3.80781L38.1478 3.81831ZM39.276 3.40942L39.4857 3.33343L39.4097 3.12375L39.2 3.19974L39.276 3.40942ZM42.1382 11.3068L42.2142 11.5164L42.4239 11.4404L42.3479 11.2308L42.1382 11.3068ZM41.2357 11.6339L41.026 11.7099L41.102 11.9195L41.3117 11.8435L41.2357 11.6339ZM38.9377 5.29344L39.1474 5.21744L38.715 5.28131L38.9377 5.29344ZM38.5393 12.6111L38.6153 12.8208L38.754 12.7705L38.762 12.6232L38.5393 12.6111ZM37.7157 12.9096L37.5525 13.0616L37.653 13.1695L37.7917 13.1193L37.7157 12.9096ZM32.7019 7.52792L32.4923 7.60391L34.7984 13.9669L35.008 13.8909L35.2177 13.8149L32.9116 7.45192L32.7019 7.52792ZM35.008 13.8909L34.9321 13.6812L34.0295 14.0083L34.1055 14.218L34.1815 14.4277L35.084 14.1006L35.008 13.8909ZM34.1055 14.218L34.3152 14.142L31.453 6.24469L31.2433 6.32069L31.0336 6.39668L33.8958 14.294L34.1055 14.218ZM31.2433 6.32069L31.3193 6.53037L32.4588 6.11739L32.3828 5.90771L32.3068 5.69803L31.1673 6.111L31.2433 6.32069ZM32.3828 5.90771L32.2187 6.05874L37.6092 11.9165L37.7733 11.7655L37.9374 11.6145L32.5469 5.75669L32.3828 5.90771ZM37.7733 11.7655L37.9961 11.776L38.3706 3.82881L38.1478 3.81831L37.925 3.80781L37.5505 11.755L37.7733 11.7655ZM38.1478 3.81831L38.2238 4.02799L39.352 3.61911L39.276 3.40942L39.2 3.19974L38.0718 3.60863L38.1478 3.81831ZM39.276 3.40942L39.0663 3.48542L41.9285 11.3828L42.1382 11.3068L42.3479 11.2308L39.4857 3.33343L39.276 3.40942ZM42.1382 11.3068L42.0622 11.0971L41.1597 11.4242L41.2357 11.6339L41.3117 11.8435L42.2142 11.5164L42.1382 11.3068ZM41.2357 11.6339L41.4453 11.5579L39.1474 5.21744L38.9377 5.29344L38.728 5.36943L41.026 11.7099L41.2357 11.6339ZM38.9377 5.29344L38.715 5.28131L38.3166 12.599L38.5393 12.6111L38.762 12.6232L39.1604 5.30556L38.9377 5.29344ZM38.5393 12.6111L38.4633 12.4014L37.6397 12.6999L37.7157 12.9096L37.7917 13.1193L38.6153 12.8208L38.5393 12.6111ZM37.7157 12.9096L37.8789 12.7576L32.8651 7.37589L32.7019 7.52792L32.5388 7.67995L37.5525 13.0616L37.7157 12.9096Z" fill="#370B27" mask="url(#path-5-outside-3_116_282)"/>
<mask id="path-7-outside-4_116_282" maskUnits="userSpaceOnUse" x="43.4862" y="0.996836" width="10.741" height="10.741" fill="black">
<rect fill="white" x="43.4862" y="0.996836" width="10.741" height="10.741"/>
<path d="M44.7649 6.49505C44.5698 3.97058 46.1732 1.98108 48.5182 1.79982C50.9111 1.61485 52.7727 3.27632 52.9724 5.86061C53.1704 8.42097 51.5862 10.3488 49.1934 10.5338C46.8603 10.7141 44.9573 8.98362 44.7649 6.49505ZM45.7212 6.4091C45.8747 8.39517 47.3165 9.76412 49.1231 9.62447C50.9895 9.4802 52.1716 7.95656 52.0144 5.92263C51.8562 3.87673 50.4669 2.5639 48.5885 2.7091C46.7699 2.84968 45.5667 4.41106 45.7212 6.4091Z"/>
</mask>
<path d="M44.7649 6.49505C44.5698 3.97058 46.1732 1.98108 48.5182 1.79982C50.9111 1.61485 52.7727 3.27632 52.9724 5.86061C53.1704 8.42097 51.5862 10.3488 49.1934 10.5338C46.8603 10.7141 44.9573 8.98362 44.7649 6.49505ZM45.7212 6.4091C45.8747 8.39517 47.3165 9.76412 49.1231 9.62447C50.9895 9.4802 52.1716 7.95656 52.0144 5.92263C51.8562 3.87673 50.4669 2.5639 48.5885 2.7091C46.7699 2.84968 45.5667 4.41106 45.7212 6.4091Z" fill="#370B27"/>
<path d="M44.7649 6.49505L44.9873 6.47786C44.8006 4.06227 46.3267 2.19291 48.5354 2.02218L48.5182 1.79982L48.501 1.57745C46.0198 1.76925 44.339 3.87889 44.5426 6.51224L44.7649 6.49505ZM48.5182 1.79982L48.5354 2.02218C49.674 1.93417 50.6763 2.28504 51.418 2.95702C52.1604 3.62969 52.6541 4.63569 52.7501 5.8778L52.9724 5.86061L53.1948 5.84342C53.0911 4.50124 52.554 3.38436 51.7175 2.62646C50.8802 1.86788 49.7554 1.48049 48.501 1.57745L48.5182 1.79982ZM52.9724 5.86061L52.7501 5.8778C52.9394 8.32637 51.4355 10.1368 49.1762 10.3114L49.1934 10.5338L49.2106 10.7561C51.737 10.5608 53.4014 8.51557 53.1948 5.84342L52.9724 5.86061ZM49.1934 10.5338L49.1762 10.3114C46.9786 10.4813 45.1712 8.8567 44.9873 6.47786L44.7649 6.49505L44.5426 6.51224C44.7434 9.11055 46.742 10.9469 49.2106 10.7561L49.1934 10.5338ZM45.7212 6.4091L45.4988 6.42628C45.6602 8.51385 47.1906 9.99755 49.1403 9.84684L49.1231 9.62447L49.1059 9.40211C47.4424 9.5307 46.0892 8.27649 45.9435 6.39191L45.7212 6.4091ZM49.1231 9.62447L49.1403 9.84684C50.1331 9.7701 50.954 9.32423 51.5035 8.61929C52.0517 7.91604 52.319 6.96943 52.2367 5.90544L52.0144 5.92263L51.792 5.93982C51.867 6.90976 51.6218 7.74194 51.1517 8.34506C50.6829 8.94649 49.9795 9.33458 49.1059 9.40211L49.1231 9.62447ZM52.0144 5.92263L52.2367 5.90544C52.1541 4.83628 51.748 3.94145 51.0993 3.3317C50.449 2.72038 49.5693 2.4096 48.5713 2.48674L48.5885 2.7091L48.6057 2.93147C49.4862 2.86341 50.2403 3.13644 50.7938 3.65671C51.3489 4.17855 51.7165 4.96309 51.792 5.93982L52.0144 5.92263ZM48.5885 2.7091L48.5713 2.48674C46.6096 2.63838 45.3365 4.32681 45.4988 6.42628L45.7212 6.4091L45.9435 6.39191C45.7969 4.4953 46.9303 3.06098 48.6057 2.93147L48.5885 2.7091Z" fill="#370B27" mask="url(#path-7-outside-4_116_282)"/>
<mask id="path-9-outside-5_116_282" maskUnits="userSpaceOnUse" x="56.5123" y="1.41407" width="8.55194" height="11.0167" fill="black">
<rect fill="white" x="56.5123" y="1.41407" width="8.55194" height="11.0167"/>
<path d="M59.1593 2.18932L64.2725 3.04344L64.1301 3.89563L59.9639 3.19968L58.7222 10.6327L57.7753 10.4745L59.1593 2.18932Z"/>
</mask>
<path d="M59.1593 2.18932L64.2725 3.04344L64.1301 3.89563L59.9639 3.19968L58.7222 10.6327L57.7753 10.4745L59.1593 2.18932Z" fill="#370B27"/>
<path d="M59.1593 2.18932L59.1961 1.96934L58.9761 1.93259L58.9393 2.15257L59.1593 2.18932ZM64.2725 3.04344L64.4925 3.08019L64.5292 2.86021L64.3092 2.82346L64.2725 3.04344ZM64.1301 3.89563L64.0934 4.11562L64.3134 4.15236L64.3501 3.93238L64.1301 3.89563ZM59.9639 3.19968L60.0006 2.9797L59.7806 2.94296L59.7439 3.16294L59.9639 3.19968ZM58.7222 10.6327L58.6855 10.8527L58.9054 10.8894L58.9422 10.6694L58.7222 10.6327ZM57.7753 10.4745L57.5554 10.4378L57.5186 10.6578L57.7386 10.6945L57.7753 10.4745ZM59.1593 2.18932L59.1226 2.4093L64.2357 3.26342L64.2725 3.04344L64.3092 2.82346L59.1961 1.96934L59.1593 2.18932ZM64.2725 3.04344L64.0525 3.0067L63.9101 3.85889L64.1301 3.89563L64.3501 3.93238L64.4925 3.08019L64.2725 3.04344ZM64.1301 3.89563L64.1669 3.67565L60.0006 2.9797L59.9639 3.19968L59.9271 3.41967L64.0934 4.11562L64.1301 3.89563ZM59.9639 3.19968L59.7439 3.16294L58.5022 10.5959L58.7222 10.6327L58.9422 10.6694L60.1838 3.23643L59.9639 3.19968ZM58.7222 10.6327L58.759 10.4127L57.8121 10.2545L57.7753 10.4745L57.7386 10.6945L58.6855 10.8527L58.7222 10.6327ZM57.7753 10.4745L57.9953 10.5113L59.3793 2.22607L59.1593 2.18932L58.9393 2.15257L57.5554 10.4378L57.7753 10.4745Z" fill="#370B27" mask="url(#path-9-outside-5_116_282)"/>
<mask id="path-11-outside-6_116_282" maskUnits="userSpaceOnUse" x="63.5652" y="3.05783" width="14.0081" height="13.4717" fill="black">
<rect fill="white" x="63.5652" y="3.05783" width="14.0081" height="13.4717"/>
<path d="M64.9674 11.7852L71.7862 5.53317L72.7492 5.93627L73.0703 15.1768L72.1294 14.783L72.0402 12.261L67.7895 10.4818L65.9305 12.1883L64.9674 11.7852ZM68.5041 9.83125L72.0021 11.2954L71.8377 6.77756L68.5041 9.83125Z"/>
</mask>
<path d="M64.9674 11.7852L71.7862 5.53317L72.7492 5.93627L73.0703 15.1768L72.1294 14.783L72.0402 12.261L67.7895 10.4818L65.9305 12.1883L64.9674 11.7852ZM68.5041 9.83125L72.0021 11.2954L71.8377 6.77756L68.5041 9.83125Z" fill="#370B27"/>
<path d="M64.9674 11.7852L64.8167 11.6208L64.5598 11.8564L64.8813 11.991L64.9674 11.7852ZM71.7862 5.53317L71.8723 5.32744L71.7406 5.27233L71.6354 5.36878L71.7862 5.53317ZM72.7492 5.93627L72.9721 5.92852L72.9671 5.78571L72.8353 5.73053L72.7492 5.93627ZM73.0703 15.1768L72.9841 15.3825L73.3052 15.5169L73.2932 15.1691L73.0703 15.1768ZM72.1294 14.783L71.9065 14.7908L71.9115 14.9336L72.0432 14.9887L72.1294 14.783ZM72.0402 12.261L72.2631 12.2531L72.2581 12.1104L72.1263 12.0552L72.0402 12.261ZM67.7895 10.4818L67.8757 10.2761L67.7439 10.2209L67.6387 10.3175L67.7895 10.4818ZM65.9305 12.1883L65.8444 12.394L65.9761 12.4492L66.0813 12.3526L65.9305 12.1883ZM68.5041 9.83125L68.3535 9.66679L68.0963 9.90234L68.418 10.037L68.5041 9.83125ZM72.0021 11.2954L71.916 11.5011L72.2376 11.6358L72.225 11.2873L72.0021 11.2954ZM71.8377 6.77756L72.0606 6.76945L72.043 6.28701L71.687 6.61311L71.8377 6.77756ZM64.9674 11.7852L65.1182 11.9496L71.9369 5.69756L71.7862 5.53317L71.6354 5.36878L64.8167 11.6208L64.9674 11.7852ZM71.7862 5.53317L71.7001 5.7389L72.6631 6.142L72.7492 5.93627L72.8353 5.73053L71.8723 5.32744L71.7862 5.53317ZM72.7492 5.93627L72.5263 5.94401L72.8474 15.1845L73.0703 15.1768L73.2932 15.1691L72.9721 5.92852L72.7492 5.93627ZM73.0703 15.1768L73.1564 14.9711L72.2155 14.5772L72.1294 14.783L72.0432 14.9887L72.9841 15.3825L73.0703 15.1768ZM72.1294 14.783L72.3522 14.7751L72.2631 12.2531L72.0402 12.261L71.8173 12.2689L71.9065 14.7908L72.1294 14.783ZM72.0402 12.261L72.1263 12.0552L67.8757 10.2761L67.7895 10.4818L67.7034 10.6875L71.9541 12.4667L72.0402 12.261ZM67.7895 10.4818L67.6387 10.3175L65.7797 12.024L65.9305 12.1883L66.0813 12.3526L67.9404 10.6461L67.7895 10.4818ZM65.9305 12.1883L66.0166 11.9826L65.0535 11.5795L64.9674 11.7852L64.8813 11.991L65.8444 12.394L65.9305 12.1883ZM68.5041 9.83125L68.418 10.037L71.916 11.5011L72.0021 11.2954L72.0882 11.0896L68.5902 9.62551L68.5041 9.83125ZM72.0021 11.2954L72.225 11.2873L72.0606 6.76945L71.8377 6.77756L71.6148 6.78567L71.7792 11.3035L72.0021 11.2954ZM71.8377 6.77756L71.687 6.61311L68.3535 9.66679L68.5041 9.83125L68.6548 9.99571L71.9883 6.94202L71.8377 6.77756Z" fill="#370B27" mask="url(#path-11-outside-6_116_282)"/>
<mask id="path-13-outside-7_116_282" maskUnits="userSpaceOnUse" x="73.6565" y="8.58328" width="12.3395" height="12.7906" fill="black">
<rect fill="white" x="73.6565" y="8.58328" width="12.3395" height="12.7906"/>
<path d="M75.208 16.5781L80.1244 9.7672L84.6877 13.0612L84.161 13.791L80.376 11.0588L78.7185 13.3551L82.3477 15.9748L81.8069 16.724L78.1777 14.1043L76.5201 16.4005L80.3051 19.1327L79.7713 19.8721L75.208 16.5781Z"/>
</mask>
<path d="M75.208 16.5781L80.1244 9.7672L84.6877 13.0612L84.161 13.791L80.376 11.0588L78.7185 13.3551L82.3477 15.9748L81.8069 16.724L78.1777 14.1043L76.5201 16.4005L80.3051 19.1327L79.7713 19.8721L75.208 16.5781Z" fill="#370B27"/>
<path d="M75.208 16.5781L75.0271 16.4476L74.8966 16.6284L75.0774 16.7589L75.208 16.5781ZM80.1244 9.7672L80.255 9.58636L80.0741 9.45582L79.9436 9.63666L80.1244 9.7672ZM84.6877 13.0612L84.8686 13.1918L84.9991 13.0109L84.8183 12.8804L84.6877 13.0612ZM84.161 13.791L84.0304 13.9718L84.2113 14.1023L84.3418 13.9215L84.161 13.791ZM80.376 11.0588L80.5066 10.878L80.3257 10.7474L80.1952 10.9283L80.376 11.0588ZM78.7185 13.3551L78.5377 13.2245L78.4071 13.4054L78.588 13.5359L78.7185 13.3551ZM82.3477 15.9748L82.5286 16.1054L82.6591 15.9245L82.4783 15.794L82.3477 15.9748ZM81.8069 16.724L81.6764 16.9049L81.8572 17.0354L81.9878 16.8546L81.8069 16.724ZM78.1777 14.1043L78.3082 13.9234L78.1274 13.7929L77.9969 13.9737L78.1777 14.1043ZM76.5201 16.4005L76.3393 16.27L76.2088 16.4508L76.3896 16.5814L76.5201 16.4005ZM80.3051 19.1327L80.4859 19.2632L80.6164 19.0824L80.4356 18.9518L80.3051 19.1327ZM79.7713 19.8721L79.6407 20.053L79.8216 20.1835L79.9521 20.0027L79.7713 19.8721ZM75.208 16.5781L75.3888 16.7086L80.3053 9.89773L80.1244 9.7672L79.9436 9.63666L75.0271 16.4476L75.208 16.5781ZM80.1244 9.7672L79.9939 9.94803L84.5572 13.2421L84.6877 13.0612L84.8183 12.8804L80.255 9.58636L80.1244 9.7672ZM84.6877 13.0612L84.5069 12.9307L83.9801 13.6604L84.161 13.791L84.3418 13.9215L84.8686 13.1918L84.6877 13.0612ZM84.161 13.791L84.2915 13.6101L80.5066 10.878L80.376 11.0588L80.2455 11.2397L84.0304 13.9718L84.161 13.791ZM80.376 11.0588L80.1952 10.9283L78.5377 13.2245L78.7185 13.3551L78.8993 13.4856L80.5569 11.1894L80.376 11.0588ZM78.7185 13.3551L78.588 13.5359L82.2172 16.1557L82.3477 15.9748L82.4783 15.794L78.849 13.1742L78.7185 13.3551ZM82.3477 15.9748L82.1669 15.8443L81.6261 16.5935L81.8069 16.724L81.9878 16.8546L82.5286 16.1054L82.3477 15.9748ZM81.8069 16.724L81.9375 16.5432L78.3082 13.9234L78.1777 14.1043L78.0472 14.2851L81.6764 16.9049L81.8069 16.724ZM78.1777 14.1043L77.9969 13.9737L76.3393 16.27L76.5201 16.4005L76.701 16.5311L78.3585 14.2348L78.1777 14.1043ZM76.5201 16.4005L76.3896 16.5814L80.1745 19.3135L80.3051 19.1327L80.4356 18.9518L76.6507 16.2197L76.5201 16.4005ZM80.3051 19.1327L80.1242 19.0021L79.5904 19.7416L79.7713 19.8721L79.9521 20.0027L80.4859 19.2632L80.3051 19.1327ZM79.7713 19.8721L79.9018 19.6913L75.3385 16.3973L75.208 16.5781L75.0774 16.7589L79.6407 20.053L79.7713 19.8721Z" fill="#370B27" mask="url(#path-13-outside-7_116_282)"/>
<mask id="path-15-outside-8_116_282" maskUnits="userSpaceOnUse" x="81.5338" y="16.1452" width="13.4455" height="13.3223" fill="black">
<rect fill="white" x="81.5338" y="16.1452" width="13.4455" height="13.3223"/>
<path d="M88.2508 18.4932L83.0663 22.8437L82.4492 22.1084L88.8839 16.7088L89.6629 17.6372L86.0119 24.7112L93.6046 22.3345L94.376 23.2538L87.9413 28.6533L87.3242 27.9179L92.4903 23.5829L85.4807 25.721L84.9176 25.0499L88.2508 18.4932Z"/>
</mask>
<path d="M88.2508 18.4932L83.0663 22.8437L82.4492 22.1084L88.8839 16.7088L89.6629 17.6372L86.0119 24.7112L93.6046 22.3345L94.376 23.2538L87.9413 28.6533L87.3242 27.9179L92.4903 23.5829L85.4807 25.721L84.9176 25.0499L88.2508 18.4932Z" fill="#370B27"/>
<path d="M88.2508 18.4932L88.4496 18.5943L88.1074 18.3224L88.2508 18.4932ZM83.0663 22.8437L82.8955 22.9871L83.0388 23.158L83.2097 23.0146L83.0663 22.8437ZM82.4492 22.1084L82.3058 21.9375L82.135 22.0809L82.2784 22.2517L82.4492 22.1084ZM88.8839 16.7088L89.0547 16.5654L88.9114 16.3946L88.7405 16.538L88.8839 16.7088ZM89.6629 17.6372L89.8611 17.7395L89.9292 17.6076L89.8338 17.4939L89.6629 17.6372ZM86.0119 24.7112L85.8137 24.6089L85.5687 25.0837L86.0785 24.9241L86.0119 24.7112ZM93.6046 22.3345L93.7755 22.1912L93.6799 22.0773L93.538 22.1217L93.6046 22.3345ZM94.376 23.2538L94.5193 23.4246L94.6902 23.2813L94.5468 23.1104L94.376 23.2538ZM87.9413 28.6533L87.7705 28.7967L87.9138 28.9675L88.0847 28.8242L87.9413 28.6533ZM87.3242 27.9179L87.1809 27.7471L87.01 27.8904L87.1534 28.0613L87.3242 27.9179ZM92.4903 23.5829L92.6337 23.7537L92.4253 23.3695L92.4903 23.5829ZM85.4807 25.721L85.3098 25.8643L85.4046 25.9773L85.5457 25.9343L85.4807 25.721ZM84.9176 25.0499L84.7188 24.9488L84.6519 25.0803L84.7467 25.1933L84.9176 25.0499ZM88.2508 18.4932L88.1074 18.3224L82.9229 22.6729L83.0663 22.8437L83.2097 23.0146L88.3942 18.6641L88.2508 18.4932ZM83.0663 22.8437L83.2371 22.7004L82.6201 21.965L82.4492 22.1084L82.2784 22.2517L82.8955 22.9871L83.0663 22.8437ZM82.4492 22.1084L82.5926 22.2792L89.0272 16.8797L88.8839 16.7088L88.7405 16.538L82.3058 21.9375L82.4492 22.1084ZM88.8839 16.7088L88.713 16.8522L89.4921 17.7806L89.6629 17.6372L89.8338 17.4939L89.0547 16.5654L88.8839 16.7088ZM89.6629 17.6372L89.4648 17.5349L85.8137 24.6089L86.0119 24.7112L86.2101 24.8135L89.8611 17.7395L89.6629 17.6372ZM86.0119 24.7112L86.0785 24.9241L93.6712 22.5474L93.6046 22.3345L93.538 22.1217L85.9453 24.4984L86.0119 24.7112ZM93.6046 22.3345L93.4338 22.4779L94.2051 23.3971L94.376 23.2538L94.5468 23.1104L93.7755 22.1912L93.6046 22.3345ZM94.376 23.2538L94.2326 23.0829L87.798 28.4825L87.9413 28.6533L88.0847 28.8242L94.5193 23.4246L94.376 23.2538ZM87.9413 28.6533L88.1122 28.51L87.4951 27.7746L87.3242 27.9179L87.1534 28.0613L87.7705 28.7967L87.9413 28.6533ZM87.3242 27.9179L87.4676 28.0888L92.6337 23.7537L92.4903 23.5829L92.347 23.412L87.1809 27.7471L87.3242 27.9179ZM92.4903 23.5829L92.4253 23.3695L85.4156 25.5076L85.4807 25.721L85.5457 25.9343L92.5554 23.7962L92.4903 23.5829ZM85.4807 25.721L85.6515 25.5776L85.0884 24.9065L84.9176 25.0499L84.7467 25.1933L85.3098 25.8643L85.4807 25.721ZM84.9176 25.0499L85.1164 25.151L88.4496 18.5943L88.2508 18.4932L88.052 18.3922L84.7188 24.9488L84.9176 25.0499Z" fill="#370B27" mask="url(#path-15-outside-8_116_282)"/>
<mask id="path-17-outside-9_116_282" maskUnits="userSpaceOnUse" x="0.000140727" y="52.0516" width="12.6888" height="9.94141" fill="black">
<rect fill="white" x="0.000140727" y="52.0516" width="12.6888" height="9.94141"/>
<path d="M3.92977 53.0812L4.00745 54.0381C5.34549 54.6518 6.75204 54.9229 8.3428 54.7938L11.5602 54.5326L11.9709 59.592L4.50747 60.1978L4.59776 61.3102L1.70328 61.5451L1.62561 60.5883L3.61108 60.4271L3.09844 54.1119L1.11297 54.273L1.03529 53.3162L3.92977 53.0812ZM4.08706 55.0189L4.4298 59.241L10.9962 58.7079L10.7408 55.5623L8.42048 55.7506C6.84167 55.8788 5.40119 55.6345 4.08706 55.0189Z"/>
</mask>
<path d="M3.92977 53.0812L4.00745 54.0381C5.34549 54.6518 6.75204 54.9229 8.3428 54.7938L11.5602 54.5326L11.9709 59.592L4.50747 60.1978L4.59776 61.3102L1.70328 61.5451L1.62561 60.5883L3.61108 60.4271L3.09844 54.1119L1.11297 54.273L1.03529 53.3162L3.92977 53.0812ZM4.08706 55.0189L4.4298 59.241L10.9962 58.7079L10.7408 55.5623L8.42048 55.7506C6.84167 55.8788 5.40119 55.6345 4.08706 55.0189Z" fill="#370B27"/>
<path d="M3.92977 53.0812L4.15207 53.0632L4.13403 52.8409L3.91173 52.8589L3.92977 53.0812ZM4.00745 54.0381L3.78515 54.0561L3.79572 54.1863L3.91446 54.2408L4.00745 54.0381ZM11.5602 54.5326L11.7825 54.5146L11.7645 54.2923L11.5422 54.3103L11.5602 54.5326ZM11.9709 59.592L11.989 59.8143L12.2113 59.7962L12.1932 59.5739L11.9709 59.592ZM4.50747 60.1978L4.48942 59.9755L4.26713 59.9936L4.28517 60.2159L4.50747 60.1978ZM4.59776 61.3102L4.61581 61.5325L4.83811 61.5144L4.82006 61.2921L4.59776 61.3102ZM1.70328 61.5451L1.48099 61.5632L1.49903 61.7855L1.72133 61.7674L1.70328 61.5451ZM1.62561 60.5883L1.60757 60.366L1.38527 60.384L1.40331 60.6063L1.62561 60.5883ZM3.61108 60.4271L3.62913 60.6494L3.85142 60.6314L3.83338 60.4091L3.61108 60.4271ZM3.09844 54.1119L3.32073 54.0938L3.30269 53.8715L3.08039 53.8896L3.09844 54.1119ZM1.11297 54.273L0.89067 54.2911L0.908716 54.5134L1.13101 54.4953L1.11297 54.273ZM1.03529 53.3162L1.01725 53.0939L0.794952 53.1119L0.812997 53.3342L1.03529 53.3162ZM4.08706 55.0189L4.18169 54.8169L3.83367 54.6538L3.86476 55.0369L4.08706 55.0189ZM4.4298 59.241L4.2075 59.259L4.22554 59.4813L4.44784 59.4633L4.4298 59.241ZM10.9962 58.7079L11.0142 58.9302L11.2365 58.9122L11.2185 58.6899L10.9962 58.7079ZM10.7408 55.5623L10.9631 55.5442L10.9451 55.3219L10.7228 55.34L10.7408 55.5623ZM3.92977 53.0812L3.70748 53.0993L3.78515 54.0561L4.00745 54.0381L4.22974 54.02L4.15207 53.0632L3.92977 53.0812ZM4.00745 54.0381L3.91446 54.2408C5.28655 54.8702 6.73127 55.1484 8.36085 55.0161L8.34281 54.7938L8.32476 54.5715C6.77281 54.6975 5.40444 54.4335 4.10043 53.8354L4.00745 54.0381ZM8.34281 54.7938L8.36085 55.0161L11.5783 54.7549L11.5602 54.5326L11.5422 54.3103L8.32476 54.5715L8.34281 54.7938ZM11.5602 54.5326L11.3379 54.5507L11.7486 59.61L11.9709 59.592L12.1932 59.5739L11.7825 54.5146L11.5602 54.5326ZM11.9709 59.592L11.9529 59.3697L4.48942 59.9755L4.50747 60.1978L4.52551 60.4201L11.989 59.8143L11.9709 59.592ZM4.50747 60.1978L4.28517 60.2159L4.37547 61.3282L4.59776 61.3102L4.82006 61.2921L4.72977 60.1798L4.50747 60.1978ZM4.59776 61.3102L4.57972 61.0879L1.68524 61.3228L1.70328 61.5451L1.72133 61.7674L4.61581 61.5325L4.59776 61.3102ZM1.70328 61.5451L1.92558 61.5271L1.84791 60.5702L1.62561 60.5883L1.40331 60.6063L1.48099 61.5632L1.70328 61.5451ZM1.62561 60.5883L1.64366 60.8106L3.62913 60.6494L3.61108 60.4271L3.59304 60.2048L1.60757 60.366L1.62561 60.5883ZM3.61108 60.4271L3.83338 60.4091L3.32073 54.0938L3.09844 54.1119L2.87614 54.1299L3.38878 60.4451L3.61108 60.4271ZM3.09844 54.1119L3.08039 53.8896L1.09492 54.0507L1.11297 54.273L1.13101 54.4953L3.11648 54.3342L3.09844 54.1119ZM1.11297 54.273L1.33527 54.255L1.25759 53.2981L1.03529 53.3162L0.812997 53.3342L0.89067 54.2911L1.11297 54.273ZM1.03529 53.3162L1.05334 53.5385L3.94782 53.3035L3.92977 53.0812L3.91173 52.8589L1.01725 53.0939L1.03529 53.3162ZM4.08706 55.0189L3.86476 55.0369L4.2075 59.259L4.4298 59.241L4.65209 59.2229L4.30936 55.0008L4.08706 55.0189ZM4.4298 59.241L4.44784 59.4633L11.0142 58.9302L10.9962 58.7079L10.9782 58.4856L4.41175 59.0187L4.4298 59.241ZM10.9962 58.7079L11.2185 58.6899L10.9631 55.5442L10.7408 55.5623L10.5185 55.5803L10.7739 58.726L10.9962 58.7079ZM10.7408 55.5623L10.7228 55.34L8.40243 55.5283L8.42048 55.7506L8.43852 55.9729L10.7589 55.7846L10.7408 55.5623ZM8.42048 55.7506L8.40243 55.5283C6.85883 55.6536 5.45763 55.4147 4.18169 54.8169L4.08706 55.0189L3.99244 55.2208C5.34474 55.8544 6.82451 56.104 8.43852 55.9729L8.42048 55.7506Z" fill="#370B27" mask="url(#path-17-outside-9_116_282)"/>
<mask id="path-19-outside-10_116_282" maskUnits="userSpaceOnUse" x="3.10901" y="60.7417" width="13.0439" height="13.6625" fill="black">
<rect fill="white" x="3.10901" y="60.7417" width="13.0439" height="13.6625"/>
<path d="M4.4139 64.7219L13.6191 65.6423L13.96 66.6291L7.28237 73.0243L6.94928 72.0602L8.77078 70.3137L7.26601 65.9583L4.75482 65.7086L4.4139 64.7219ZM8.22722 66.0579L9.46552 69.642L12.7254 66.5097L8.22722 66.0579Z"/>
</mask>
<path d="M4.4139 64.7219L13.6191 65.6423L13.96 66.6291L7.28237 73.0243L6.94928 72.0602L8.77078 70.3137L7.26601 65.9583L4.75482 65.7086L4.4139 64.7219ZM8.22722 66.0579L9.46552 69.642L12.7254 66.5097L8.22722 66.0579Z" fill="#370B27"/>
<path d="M4.4139 64.7219L4.43609 64.5L4.08928 64.4653L4.2031 64.7947L4.4139 64.7219ZM13.6191 65.6423L13.8299 65.5695L13.7833 65.4346L13.6413 65.4204L13.6191 65.6423ZM13.96 66.6291L14.1143 66.7902L14.2175 66.6913L14.1709 66.5562L13.96 66.6291ZM7.28237 73.0243L7.07157 73.0972L7.18524 73.4262L7.43663 73.1854L7.28237 73.0243ZM6.94928 72.0602L6.79492 71.8993L6.69184 71.9981L6.73848 72.1331L6.94928 72.0602ZM8.77078 70.3137L8.92514 70.4746L9.02822 70.3758L8.98159 70.2408L8.77078 70.3137ZM7.26601 65.9583L7.47682 65.8855L7.43018 65.7505L7.28808 65.7364L7.26601 65.9583ZM4.75482 65.7086L4.54402 65.7815L4.59065 65.9165L4.73276 65.9306L4.75482 65.7086ZM8.22722 66.0579L8.24952 65.8359L7.90255 65.8011L8.01642 66.1307L8.22722 66.0579ZM9.46553 69.642L9.25472 69.7148L9.3686 70.0444L9.62005 69.8028L9.46553 69.642ZM12.7254 66.5097L12.8799 66.6705L13.228 66.3361L12.7477 66.2878L12.7254 66.5097ZM4.4139 64.7219L4.39171 64.9438L13.5969 65.8642L13.6191 65.6423L13.6413 65.4204L4.43609 64.5L4.4139 64.7219ZM13.6191 65.6423L13.4083 65.7151L13.7492 66.7019L13.96 66.6291L14.1709 66.5562L13.8299 65.5695L13.6191 65.6423ZM13.96 66.6291L13.8058 66.468L7.1281 72.8632L7.28237 73.0243L7.43663 73.1854L14.1143 66.7902L13.96 66.6291ZM7.28237 73.0243L7.49317 72.9515L7.16008 71.9874L6.94928 72.0602L6.73848 72.1331L7.07157 73.0972L7.28237 73.0243ZM6.94928 72.0602L7.10364 72.2212L8.92514 70.4746L8.77078 70.3137L8.61642 70.1527L6.79492 71.8993L6.94928 72.0602ZM8.77078 70.3137L8.98159 70.2408L7.47682 65.8855L7.26601 65.9583L7.05521 66.0311L8.55998 70.3865L8.77078 70.3137ZM7.26601 65.9583L7.28808 65.7364L4.77688 65.4867L4.75482 65.7086L4.73276 65.9306L7.24395 66.1802L7.26601 65.9583ZM4.75482 65.7086L4.96562 65.6358L4.6247 64.649L4.4139 64.7219L4.2031 64.7947L4.54402 65.7815L4.75482 65.7086ZM8.22722 66.0579L8.01642 66.1307L9.25472 69.7148L9.46553 69.642L9.67633 69.5691L8.43803 65.985L8.22722 66.0579ZM9.46553 69.642L9.62005 69.8028L12.8799 66.6705L12.7254 66.5097L12.5709 66.3489L9.311 69.4811L9.46553 69.642ZM12.7254 66.5097L12.7477 66.2878L8.24952 65.8359L8.22722 66.0579L8.20493 66.2798L12.7031 66.7316L12.7254 66.5097Z" fill="#370B27" mask="url(#path-19-outside-10_116_282)"/>
<mask id="path-21-outside-11_116_282" maskUnits="userSpaceOnUse" x="8.18672" y="71.5418" width="12.7365" height="12.1329" fill="black">
<rect fill="white" x="8.18672" y="71.5418" width="12.7365" height="12.1329"/>
<path d="M9.23417 76.7217L16.3046 72.1865L18.1706 75.0955C19.1294 76.5904 18.8839 78.4301 17.49 79.3242C16.1466 80.1859 14.2661 79.6101 13.3525 78.1859L12.0049 76.085L9.75248 77.5298L9.23417 76.7217ZM16.9717 78.5162C17.9211 77.9071 18.1063 76.6621 17.413 75.5814L16.0654 73.4804L12.7625 75.599L14.1101 77.7C14.7774 78.7403 16.0424 79.1122 16.9717 78.5162Z"/>
</mask>
<path d="M9.23417 76.7217L16.3046 72.1865L18.1706 75.0955C19.1294 76.5904 18.8839 78.4301 17.49 79.3242C16.1466 80.1859 14.2661 79.6101 13.3525 78.1859L12.0049 76.085L9.75248 77.5298L9.23417 76.7217ZM16.9717 78.5162C17.9211 77.9071 18.1063 76.6621 17.413 75.5814L16.0654 73.4804L12.7625 75.599L14.1101 77.7C14.7774 78.7403 16.0424 79.1122 16.9717 78.5162Z" fill="#370B27"/>
<path d="M9.23417 76.7217L9.11375 76.534L8.92602 76.6544L9.04644 76.8421L9.23417 76.7217ZM16.3046 72.1865L16.4924 72.066L16.372 71.8783L16.1842 71.9987L16.3046 72.1865ZM12.0049 76.085L12.1927 75.9645L12.0722 75.7768L11.8845 75.8972L12.0049 76.085ZM9.75248 77.5298L9.56475 77.6502L9.68517 77.8379L9.8729 77.7175L9.75248 77.5298ZM16.0654 73.4804L16.2531 73.36L16.1327 73.1723L15.945 73.2927L16.0654 73.4804ZM12.7625 75.599L12.6421 75.4113L12.4543 75.5317L12.5748 75.7195L12.7625 75.599ZM9.23417 76.7217L9.35458 76.9094L16.4251 72.3742L16.3046 72.1865L16.1842 71.9987L9.11375 76.534L9.23417 76.7217ZM16.3046 72.1865L16.1169 72.3069L17.9828 75.2159L18.1706 75.0955L18.3583 74.975L16.4924 72.066L16.3046 72.1865ZM18.1706 75.0955L17.9828 75.2159C18.8901 76.6303 18.638 78.3229 17.3696 79.1365L17.49 79.3242L17.6104 79.5119C19.1298 78.5374 19.3688 76.5504 18.3583 74.975L18.1706 75.0955ZM17.49 79.3242L17.3696 79.1365C16.1513 79.918 14.4019 79.4088 13.5403 78.0655L13.3525 78.1859L13.1648 78.3063C14.1302 79.8114 16.142 80.4539 17.6104 79.5119L17.49 79.3242ZM13.3525 78.1859L13.5403 78.0655L12.1927 75.9645L12.0049 76.085L11.8172 76.2054L13.1648 78.3063L13.3525 78.1859ZM12.0049 76.085L11.8845 75.8972L9.63206 77.342L9.75248 77.5298L9.8729 77.7175L12.1253 76.2727L12.0049 76.085ZM9.75248 77.5298L9.94021 77.4093L9.4219 76.6013L9.23417 76.7217L9.04644 76.8421L9.56475 77.6502L9.75248 77.5298ZM16.9717 78.5162L17.0921 78.7039C18.1679 78.0138 18.345 76.6212 17.6007 75.461L17.413 75.5814L17.2253 75.7018C17.8676 76.7031 17.6744 77.8005 16.8513 78.3284L16.9717 78.5162ZM17.413 75.5814L17.6007 75.461L16.2531 73.36L16.0654 73.4804L15.8777 73.6008L17.2253 75.7018L17.413 75.5814ZM16.0654 73.4804L15.945 73.2927L12.6421 75.4113L12.7625 75.599L12.8829 75.7868L16.1858 73.6682L16.0654 73.4804ZM12.7625 75.599L12.5748 75.7195L13.9224 77.8204L14.1101 77.7L14.2978 77.5796L12.9502 75.4786L12.7625 75.599ZM14.1101 77.7L13.9224 77.8204C14.6409 78.9406 16.0368 79.3808 17.0921 78.7039L16.9717 78.5162L16.8513 78.3284C16.048 78.8437 14.9139 78.5401 14.2978 77.5796L14.1101 77.7Z" fill="#370B27" mask="url(#path-21-outside-11_116_282)"/>
<mask id="path-23-outside-12_116_282" maskUnits="userSpaceOnUse" x="15.3327" y="79.6506" width="12.6681" height="12.7709" fill="black">
<rect fill="white" x="15.3327" y="79.6506" width="12.6681" height="12.7709"/>
<path d="M21.584 91.4211L20.881 90.7674L25.4243 85.8813L16.8649 87.0331L16.3113 86.5183L22.0313 80.3667L22.7343 81.0204L18.1991 85.8978L26.7504 84.7548L27.304 85.2696L21.584 91.4211Z"/>
</mask>
<path d="M21.584 91.4211L20.881 90.7674L25.4243 85.8813L16.8649 87.0331L16.3113 86.5183L22.0313 80.3667L22.7343 81.0204L18.1991 85.8978L26.7504 84.7548L27.304 85.2696L21.584 91.4211Z" fill="#370B27"/>
<path d="M21.584 91.4211L21.4321 91.5845L21.5955 91.7363L21.7473 91.573L21.584 91.4211ZM20.881 90.7674L20.7177 90.6156L20.5658 90.7789L20.7291 90.9308L20.881 90.7674ZM25.4243 85.8813L25.5876 86.0332L26.0116 85.5773L25.3946 85.6603L25.4243 85.8813ZM16.8649 87.0331L16.713 87.1964L16.7902 87.2682L16.8946 87.2541L16.8649 87.0331ZM16.3113 86.5183L16.1479 86.3664L15.9961 86.5297L16.1594 86.6816L16.3113 86.5183ZM22.0313 80.3667L22.1831 80.2034L22.0198 80.0515L21.8679 80.2149L22.0313 80.3667ZM22.7343 81.0204L22.8976 81.1723L23.0495 81.009L22.8862 80.8571L22.7343 81.0204ZM18.1991 85.8978L18.0358 85.7459L17.6125 86.2012L18.2287 86.1188L18.1991 85.8978ZM26.7504 84.7548L26.9022 84.5915L26.8252 84.5198L26.7208 84.5337L26.7504 84.7548ZM27.304 85.2696L27.4673 85.4215L27.6192 85.2581L27.4559 85.1063L27.304 85.2696ZM21.584 91.4211L21.7359 91.2578L21.0329 90.6041L20.881 90.7674L20.7291 90.9308L21.4321 91.5845L21.584 91.4211ZM20.881 90.7674L21.0443 90.9193L25.5876 86.0332L25.4243 85.8813L25.261 85.7295L20.7177 90.6156L20.881 90.7674ZM25.4243 85.8813L25.3946 85.6603L16.8352 86.8121L16.8649 87.0331L16.8946 87.2541L25.454 86.1024L25.4243 85.8813ZM16.8649 87.0331L17.0168 86.8698L16.4631 86.355L16.3113 86.5183L16.1594 86.6816L16.713 87.1964L16.8649 87.0331ZM16.3113 86.5183L16.4746 86.6702L22.1946 80.5186L22.0313 80.3667L21.8679 80.2149L16.1479 86.3664L16.3113 86.5183ZM22.0313 80.3667L21.8794 80.5301L22.5824 81.1838L22.7343 81.0204L22.8862 80.8571L22.1831 80.2034L22.0313 80.3667ZM22.7343 81.0204L22.571 80.8686L18.0358 85.7459L18.1991 85.8978L18.3625 86.0496L22.8976 81.1723L22.7343 81.0204ZM18.1991 85.8978L18.2287 86.1188L26.7799 84.9759L26.7504 84.7548L26.7208 84.5337L18.1696 85.6767L18.1991 85.8978ZM26.7504 84.7548L26.5985 84.9181L27.1521 85.4329L27.304 85.2696L27.4559 85.1063L26.9022 84.5915L26.7504 84.7548ZM27.304 85.2696L27.1407 85.1177L21.4207 91.2693L21.584 91.4211L21.7473 91.573L27.4673 85.4215L27.304 85.2696Z" fill="#370B27" mask="url(#path-23-outside-12_116_282)"/>
<mask id="path-25-outside-13_116_282" maskUnits="userSpaceOnUse" x="24.4367" y="86.0791" width="11.8708" height="12.6359" fill="black">
<rect fill="white" x="24.4367" y="86.0791" width="11.8708" height="12.6359"/>
<path d="M27.9946 95.6496L31.6656 89.1094L29.1227 87.6821L29.5633 86.8973L35.4756 90.2159L35.0351 91.0007L32.5027 89.5793L28.8317 96.1194L27.9946 95.6496Z"/>
</mask>
<path d="M27.9946 95.6496L31.6656 89.1094L29.1227 87.6821L29.5633 86.8973L35.4756 90.2159L35.0351 91.0007L32.5027 89.5793L28.8317 96.1194L27.9946 95.6496Z" fill="#370B27"/>
<path d="M27.9946 95.6496L27.8001 95.5404L27.6909 95.7349L27.8854 95.844L27.9946 95.6496ZM31.6656 89.1094L31.86 89.2185L31.9692 89.0241L31.7747 88.9149L31.6656 89.1094ZM29.1227 87.6821L28.9283 87.5729L28.8191 87.7674L29.0136 87.8766L29.1227 87.6821ZM29.5633 86.8973L29.6724 86.7028L29.4779 86.5936L29.3688 86.7881L29.5633 86.8973ZM35.4756 90.2159L35.6701 90.325L35.7792 90.1305L35.5847 90.0214L35.4756 90.2159ZM35.0351 91.0007L34.9259 91.1952L35.1204 91.3043L35.2295 91.1098L35.0351 91.0007ZM32.5027 89.5793L32.6119 89.3848L32.4174 89.2756L32.3082 89.4701L32.5027 89.5793ZM28.8317 96.1194L28.7226 96.3139L28.917 96.4231L29.0262 96.2286L28.8317 96.1194ZM27.9946 95.6496L28.1891 95.7587L31.86 89.2185L31.6656 89.1094L31.4711 89.0002L27.8001 95.5404L27.9946 95.6496ZM31.6656 89.1094L31.7747 88.9149L29.2319 87.4876L29.1227 87.6821L29.0136 87.8766L31.5564 89.3039L31.6656 89.1094ZM29.1227 87.6821L29.3172 87.7913L29.7577 87.0064L29.5633 86.8973L29.3688 86.7881L28.9283 87.5729L29.1227 87.6821ZM29.5633 86.8973L29.4541 87.0918L35.3664 90.4103L35.4756 90.2159L35.5847 90.0214L29.6724 86.7028L29.5633 86.8973ZM35.4756 90.2159L35.2811 90.1067L34.8406 90.8915L35.0351 91.0007L35.2295 91.1098L35.6701 90.325L35.4756 90.2159ZM35.0351 91.0007L35.1442 90.8062L32.6119 89.3848L32.5027 89.5793L32.3935 89.7738L34.9259 91.1952L35.0351 91.0007ZM32.5027 89.5793L32.3082 89.4701L28.6372 96.0103L28.8317 96.1194L29.0262 96.2286L32.6972 89.6884L32.5027 89.5793ZM28.8317 96.1194L28.9409 95.925L28.1037 95.4551L27.9946 95.6496L27.8854 95.844L28.7226 96.3139L28.8317 96.1194Z" fill="#370B27" mask="url(#path-25-outside-13_116_282)"/>
<mask id="path-27-outside-14_116_282" maskUnits="userSpaceOnUse" x="35.017" y="90.5895" width="10.4785" height="11.839" fill="black">
<rect fill="white" x="35.017" y="90.5895" width="10.4785" height="11.839"/>
<path d="M38.0242 91.2754L38.9459 91.544L38.1971 94.1131L40.5934 94.8115C42.2985 95.3084 43.3087 96.9028 42.8555 98.4581C42.3921 100.048 40.7776 100.827 38.9919 100.307L35.6739 99.3399L38.0242 91.2754ZM41.9338 98.1895C42.2595 97.0719 41.5647 95.982 40.355 95.6295L37.9587 94.9311L36.8407 98.7675L39.237 99.4659C40.5042 99.8352 41.6081 99.307 41.9338 98.1895Z"/>
</mask>
<path d="M38.0242 91.2754L38.9459 91.544L38.1971 94.1131L40.5934 94.8115C42.2985 95.3084 43.3087 96.9028 42.8555 98.4581C42.3921 100.048 40.7776 100.827 38.9919 100.307L35.6739 99.3399L38.0242 91.2754ZM41.9338 98.1895C42.2595 97.0719 41.5647 95.982 40.355 95.6295L37.9587 94.9311L36.8407 98.7675L39.237 99.4659C40.5042 99.8352 41.6081 99.307 41.9338 98.1895Z" fill="#370B27"/>
<path d="M38.0242 91.2754L38.0866 91.0613L37.8725 90.9989L37.8101 91.213L38.0242 91.2754ZM38.9459 91.544L39.16 91.6064L39.2224 91.3923L39.0083 91.3299L38.9459 91.544ZM38.1971 94.1131L37.983 94.0507L37.9206 94.2648L38.1347 94.3272L38.1971 94.1131ZM35.6739 99.3399L35.4598 99.2775L35.3974 99.4916L35.6115 99.554L35.6739 99.3399ZM37.9587 94.9311L38.0211 94.717L37.807 94.6546L37.7446 94.8687L37.9587 94.9311ZM36.8407 98.7675L36.6265 98.7051L36.5641 98.9192L36.7783 98.9816L36.8407 98.7675ZM38.0242 91.2754L37.9618 91.4895L38.8835 91.7581L38.9459 91.544L39.0083 91.3299L38.0866 91.0613L38.0242 91.2754ZM38.9459 91.544L38.7317 91.4816L37.983 94.0507L38.1971 94.1131L38.4112 94.1755L39.16 91.6064L38.9459 91.544ZM38.1971 94.1131L38.1347 94.3272L40.531 95.0256L40.5934 94.8115L40.6558 94.5974L38.2595 93.899L38.1971 94.1131ZM40.5934 94.8115L40.531 95.0256C42.1412 95.4949 43.0537 96.9807 42.6414 98.3957L42.8555 98.4581L43.0696 98.5205C43.5638 96.8248 42.4558 95.1219 40.6558 94.5974L40.5934 94.8115ZM42.8555 98.4581L42.6414 98.3957C42.2187 99.8459 40.7443 100.585 39.0543 100.093L38.9919 100.307L38.9295 100.521C40.8108 101.069 42.5655 100.25 43.0696 98.5205L42.8555 98.4581ZM38.9919 100.307L39.0543 100.093L35.7363 99.1258L35.6739 99.3399L35.6115 99.554L38.9295 100.521L38.9919 100.307ZM35.6739 99.3399L35.888 99.4023L38.2383 91.3378L38.0242 91.2754L37.8101 91.213L35.4598 99.2775L35.6739 99.3399ZM41.9338 98.1895L42.1479 98.2519C42.5144 96.9944 41.7224 95.7957 40.4174 95.4153L40.355 95.6295L40.2926 95.8436C41.407 96.1683 42.0046 97.1495 41.7197 98.1271L41.9338 98.1895ZM40.355 95.6295L40.4174 95.4153L38.0211 94.717L37.9587 94.9311L37.8963 95.1452L40.2926 95.8436L40.355 95.6295ZM37.9587 94.9311L37.7446 94.8687L36.6265 98.7051L36.8407 98.7675L37.0548 98.8299L38.1729 94.9935L37.9587 94.9311ZM36.8407 98.7675L36.7783 98.9816L39.1746 99.68L39.237 99.4659L39.2994 99.2517L36.9031 98.5534L36.8407 98.7675ZM39.237 99.4659L39.1746 99.68C39.852 99.8774 40.5021 99.8393 41.0341 99.5867C41.5685 99.333 41.9678 98.8699 42.1479 98.2519L41.9338 98.1895L41.7197 98.1271C41.5741 98.6265 41.2587 98.9863 40.8428 99.1838C40.4247 99.3823 39.8892 99.4236 39.2994 99.2517L39.237 99.4659Z" fill="#370B27" mask="url(#path-27-outside-14_116_282)"/>
<mask id="path-29-outside-15_116_282" maskUnits="userSpaceOnUse" x="51.7075" y="92.5167" width="10.9506" height="10.9506" fill="black">
<rect fill="white" x="51.7075" y="92.5167" width="10.9506" height="10.9506"/>
<path d="M55.576 97.4822L60.137 97.0234C59.7694 95.2875 58.404 94.1826 56.7563 94.3483C55.419 94.4828 54.3986 95.3694 54.0543 96.6222L53.0394 96.7242C53.4216 94.8888 54.7785 93.6307 56.665 93.4409C58.9933 93.2067 60.9107 94.8833 61.1641 97.4025C61.4139 99.886 59.858 101.924 57.5417 102.157C55.6552 102.347 54.0749 101.384 53.3348 99.6614L54.3497 99.5593C54.9617 100.728 56.1012 101.385 57.4504 101.25C59.0862 101.085 60.2257 99.704 60.2295 97.9428L55.6685 98.4016L55.576 97.4822Z"/>
</mask>
<path d="M55.576 97.4822L60.137 97.0234C59.7694 95.2875 58.404 94.1826 56.7563 94.3483C55.419 94.4828 54.3986 95.3694 54.0543 96.6222L53.0394 96.7242C53.4216 94.8888 54.7785 93.6307 56.665 93.4409C58.9933 93.2067 60.9107 94.8833 61.1641 97.4025C61.4139 99.886 59.858 101.924 57.5417 102.157C55.6552 102.347 54.0749 101.384 53.3348 99.6614L54.3497 99.5593C54.9617 100.728 56.1012 101.385 57.4504 101.25C59.0862 101.085 60.2257 99.704 60.2295 97.9428L55.6685 98.4016L55.576 97.4822Z" fill="#370B27"/>
<path d="M55.576 97.4822L55.5537 97.2603L55.3318 97.2826L55.3541 97.5045L55.576 97.4822ZM60.137 97.0234L60.1593 97.2453L60.4067 97.2205L60.3552 96.9772L60.137 97.0234ZM54.0543 96.6222L54.0766 96.8441L54.2288 96.8288L54.2693 96.6813L54.0543 96.6222ZM53.0394 96.7242L52.8211 96.6788L52.759 96.9766L53.0617 96.9462L53.0394 96.7242ZM53.3348 99.6614L53.3125 99.4395L53.0098 99.47L53.1299 99.7495L53.3348 99.6614ZM54.3497 99.5593L54.5473 99.4559L54.4774 99.3224L54.3274 99.3374L54.3497 99.5593ZM60.2295 97.9428L60.4525 97.9433L60.453 97.6962L60.2071 97.7209L60.2295 97.9428ZM55.6685 98.4016L55.4466 98.4239L55.4689 98.6458L55.6908 98.6235L55.6685 98.4016ZM55.576 97.4822L55.5983 97.7041L60.1593 97.2453L60.137 97.0234L60.1147 96.8015L55.5537 97.2603L55.576 97.4822ZM60.137 97.0234L60.3552 96.9772C59.9675 95.1466 58.5111 93.9477 56.734 94.1264L56.7563 94.3483L56.7786 94.5702C58.2969 94.4175 59.5713 95.4284 59.9188 97.0696L60.137 97.0234ZM56.7563 94.3483L56.734 94.1264C55.3041 94.2702 54.2078 95.2223 53.8392 96.5631L54.0543 96.6222L54.2693 96.6813C54.5895 95.5165 55.534 94.6954 56.7786 94.5702L56.7563 94.3483ZM54.0543 96.6222L54.032 96.4003L53.0171 96.5023L53.0394 96.7242L53.0617 96.9462L54.0766 96.8441L54.0543 96.6222ZM53.0394 96.7242L53.2577 96.7697C53.6206 95.0273 54.9 93.8426 56.6873 93.6628L56.665 93.4409L56.6427 93.219C54.6571 93.4187 53.2227 94.7503 52.8211 96.6788L53.0394 96.7242ZM56.665 93.4409L56.6873 93.6628C58.8783 93.4424 60.6996 95.0129 60.9422 97.4249L61.1641 97.4025L61.386 97.3802C61.1218 94.7536 59.1082 92.971 56.6427 93.219L56.665 93.4409ZM61.1641 97.4025L60.9422 97.4249C61.1811 99.8001 59.6992 101.716 57.5194 101.935L57.5417 102.157L57.564 102.379C60.0168 102.132 61.6467 99.9719 61.386 97.3802L61.1641 97.4025ZM57.5417 102.157L57.5194 101.935C55.732 102.115 54.2424 101.209 53.5398 99.5734L53.3348 99.6614L53.1299 99.7495C53.9075 101.559 55.5784 102.579 57.564 102.379L57.5417 102.157ZM53.3348 99.6614L53.3572 99.8833L54.372 99.7813L54.3497 99.5593L54.3274 99.3374L53.3125 99.4395L53.3348 99.6614ZM54.3497 99.5593L54.1521 99.6628C54.8045 100.908 56.0289 101.617 57.4728 101.471L57.4504 101.25L57.4281 101.028C56.1736 101.154 55.119 100.548 54.5473 99.4559L54.3497 99.5593ZM57.4504 101.25L57.4728 101.471C59.2379 101.294 60.4485 99.8024 60.4525 97.9433L60.2295 97.9428L60.0064 97.9423C60.0029 99.6056 58.9345 100.876 57.4281 101.028L57.4504 101.25ZM60.2295 97.9428L60.2071 97.7209L55.6461 98.1796L55.6685 98.4016L55.6908 98.6235L60.2518 98.1647L60.2295 97.9428ZM55.6685 98.4016L55.8904 98.3792L55.7979 97.4599L55.576 97.4822L55.3541 97.5045L55.4466 98.4239L55.6685 98.4016Z" fill="#370B27" mask="url(#path-29-outside-15_116_282)"/>
<mask id="path-31-outside-16_116_282" maskUnits="userSpaceOnUse" x="63.2054" y="88.8052" width="12.0311" height="12.5966" fill="black">
<rect fill="white" x="63.2054" y="88.8052" width="12.0311" height="12.5966"/>
<path d="M65.1306 93.7351L67.6031 100.035L66.7094 100.386L63.6408 92.5666L64.7691 92.1238L70.3116 97.838L70.4772 89.8838L71.5943 89.4454L74.6629 97.2648L73.7692 97.6155L71.3056 91.3376L71.0995 98.6632L70.284 98.9833L65.1306 93.7351Z"/>
</mask>
<path d="M65.1306 93.7351L67.6031 100.035L66.7094 100.386L63.6408 92.5666L64.7691 92.1238L70.3116 97.838L70.4772 89.8838L71.5943 89.4454L74.6629 97.2648L73.7692 97.6155L71.3056 91.3376L71.0995 98.6632L70.284 98.9833L65.1306 93.7351Z" fill="#370B27"/>
<path d="M65.1306 93.7351L65.2898 93.5788L64.923 93.8166L65.1306 93.7351ZM67.6031 100.035L67.6845 100.243L67.8921 100.161L67.8107 99.9539L67.6031 100.035ZM66.7094 100.386L66.5018 100.468L66.5833 100.675L66.7909 100.594L66.7094 100.386ZM63.6408 92.5666L63.5593 92.359L63.3517 92.4404L63.4332 92.6481L63.6408 92.5666ZM64.7691 92.1238L64.9291 91.9686L64.8258 91.862L64.6876 91.9162L64.7691 92.1238ZM70.3116 97.838L70.1515 97.9933L70.5234 98.3768L70.5345 97.8427L70.3116 97.838ZM70.4772 89.8838L70.3958 89.6762L70.2574 89.7305L70.2543 89.8791L70.4772 89.8838ZM71.5943 89.4454L71.8019 89.3639L71.7205 89.1563L71.5128 89.2378L71.5943 89.4454ZM74.6629 97.2648L74.7444 97.4725L74.952 97.391L74.8705 97.1834L74.6629 97.2648ZM73.7692 97.6155L73.5616 97.697L73.6431 97.9046L73.8507 97.8232L73.7692 97.6155ZM71.3056 91.3376L71.5132 91.2562L71.0827 91.3314L71.3056 91.3376ZM71.0995 98.6632L71.1809 98.8709L71.3183 98.817L71.3224 98.6695L71.0995 98.6632ZM70.284 98.9833L70.1249 99.1395L70.2282 99.2447L70.3655 99.1909L70.284 98.9833ZM65.1306 93.7351L64.923 93.8166L67.3954 100.117L67.6031 100.035L67.8107 99.9539L65.3383 93.6536L65.1306 93.7351ZM67.6031 100.035L67.5216 99.8277L66.6279 100.178L66.7094 100.386L66.7909 100.594L67.6845 100.243L67.6031 100.035ZM66.7094 100.386L66.917 100.305L63.8484 92.4851L63.6408 92.5666L63.4332 92.6481L66.5018 100.468L66.7094 100.386ZM63.6408 92.5666L63.7223 92.7742L64.8505 92.3314L64.7691 92.1238L64.6876 91.9162L63.5593 92.359L63.6408 92.5666ZM64.7691 92.1238L64.609 92.2791L70.1515 97.9933L70.3116 97.838L70.4716 97.6828L64.9291 91.9686L64.7691 92.1238ZM70.3116 97.838L70.5345 97.8427L70.7002 89.8884L70.4772 89.8838L70.2543 89.8791L70.0886 97.8334L70.3116 97.838ZM70.4772 89.8838L70.5587 90.0914L71.6758 89.653L71.5943 89.4454L71.5128 89.2378L70.3958 89.6762L70.4772 89.8838ZM71.5943 89.4454L71.3867 89.5269L74.4553 97.3463L74.6629 97.2648L74.8705 97.1834L71.8019 89.3639L71.5943 89.4454ZM74.6629 97.2648L74.5814 97.0572L73.6878 97.4079L73.7692 97.6155L73.8507 97.8232L74.7444 97.4725L74.6629 97.2648ZM73.7692 97.6155L73.9769 97.5341L71.5132 91.2562L71.3056 91.3376L71.098 91.4191L73.5616 97.697L73.7692 97.6155ZM71.3056 91.3376L71.0827 91.3314L70.8765 98.657L71.0995 98.6632L71.3224 98.6695L71.5286 91.3439L71.3056 91.3376ZM71.0995 98.6632L71.018 98.4556L70.2025 98.7756L70.284 98.9833L70.3655 99.1909L71.1809 98.8709L71.0995 98.6632ZM70.284 98.9833L70.4431 98.827L65.2898 93.5788L65.1306 93.7351L64.9715 93.8914L70.1249 99.1395L70.284 98.9833Z" fill="#370B27" mask="url(#path-31-outside-16_116_282)"/>
<mask id="path-33-outside-17_116_282" maskUnits="userSpaceOnUse" x="73.0497" y="82.0373" width="14.0072" height="14.0072" fill="black">
<rect fill="white" x="73.0497" y="82.0373" width="14.0072" height="14.0072"/>
<path d="M76.6773 91.3565C75.1508 89.3364 75.4271 86.7962 77.3035 85.3781C79.2183 83.9311 81.6821 84.3254 83.2449 86.3933C84.7932 88.4421 84.4998 90.92 82.585 92.3669C80.7182 93.7777 78.1822 93.3478 76.6773 91.3565ZM77.436 90.7681C78.637 92.3573 80.5896 92.7318 82.0352 91.6393C83.5287 90.5107 83.7017 88.59 82.4718 86.9625C81.2346 85.3254 79.3565 84.9698 77.8534 86.1057C76.3982 87.2054 76.2278 89.1693 77.436 90.7681Z"/>
</mask>
<path d="M76.6773 91.3565C75.1508 89.3364 75.4271 86.7962 77.3035 85.3781C79.2183 83.9311 81.6821 84.3254 83.2449 86.3933C84.7932 88.4421 84.4998 90.92 82.585 92.3669C80.7182 93.7777 78.1822 93.3478 76.6773 91.3565ZM77.436 90.7681C78.637 92.3573 80.5896 92.7318 82.0352 91.6393C83.5287 90.5107 83.7017 88.59 82.4718 86.9625C81.2346 85.3254 79.3565 84.9698 77.8534 86.1057C76.3982 87.2054 76.2278 89.1693 77.436 90.7681Z" fill="#370B27"/>
<path d="M76.6773 91.3565L76.8553 91.222C75.3945 89.2891 75.6706 86.8917 77.438 85.5561L77.3035 85.3781L77.1691 85.2002C75.1836 86.7007 74.907 89.3837 76.4994 91.4909L76.6773 91.3565ZM77.3035 85.3781L77.438 85.5561C78.3491 84.8676 79.3823 84.6221 80.3693 84.7876C81.3574 84.9533 82.3158 85.5338 83.067 86.5278L83.2449 86.3933L83.4228 86.2588C82.6112 85.1848 81.5563 84.5343 80.4431 84.3477C79.3289 84.1608 78.1728 84.4417 77.1691 85.2002L77.3035 85.3781ZM83.2449 86.3933L83.067 86.5278C84.5476 88.4871 84.2585 90.8228 82.4506 92.189L82.585 92.3669L82.7195 92.5449C84.7411 91.0171 85.0387 88.3971 83.4228 86.2588L83.2449 86.3933ZM82.585 92.3669L82.4506 92.189C80.6921 93.5179 78.2938 93.1255 76.8553 91.222L76.6773 91.3565L76.4994 91.4909C78.0706 93.5701 80.7442 94.0376 82.7195 92.5449L82.585 92.3669ZM77.436 90.7681L77.258 90.9026C78.5204 92.573 80.6095 92.9963 82.1697 91.8173L82.0352 91.6393L81.9007 91.4614C80.5696 92.4673 78.7535 92.1416 77.6139 90.6336L77.436 90.7681ZM82.0352 91.6393L82.1697 91.8173C82.9641 91.2169 83.4146 90.3985 83.4968 89.5085C83.5789 88.6206 83.2931 87.6794 82.6497 86.828L82.4718 86.9625L82.2938 87.097C82.8804 87.8731 83.123 88.706 83.0527 89.4675C82.9825 90.2268 82.5998 90.9331 81.9007 91.4614L82.0352 91.6393ZM82.4718 86.9625L82.6497 86.828C82.0032 85.9725 81.1783 85.4383 80.3032 85.275C79.4258 85.1113 78.5175 85.3243 77.7189 85.9278L77.8534 86.1057L77.9879 86.2837C78.6924 85.7512 79.4747 85.5741 80.2214 85.7135C80.9704 85.8533 81.7032 86.3154 82.2938 87.097L82.4718 86.9625ZM77.8534 86.1057L77.7189 85.9278C76.1492 87.1141 75.9885 89.2226 77.258 90.9026L77.436 90.7681L77.6139 90.6336C76.467 89.116 76.6472 87.2968 77.9879 86.2837L77.8534 86.1057Z" fill="#370B27" mask="url(#path-33-outside-17_116_282)"/>
<mask id="path-35-outside-18_116_282" maskUnits="userSpaceOnUse" x="81.4369" y="73.7979" width="15.6078" height="15.2385" fill="black">
<rect fill="white" x="81.4369" y="73.7979" width="15.6078" height="15.2385"/>
<path d="M89.2338 86.3547L82.5694 81.2415L83.1537 80.4798L89.0946 85.0379L92.1991 80.9916L86.2582 76.4335L86.8425 75.6719L92.7834 80.2299L93.5358 79.2493L95.8398 81.017L95.292 81.7311L93.7115 80.5185L89.2338 86.3547Z"/>
</mask>
<path d="M89.2338 86.3547L82.5694 81.2415L83.1537 80.4798L89.0946 85.0379L92.1991 80.9916L86.2582 76.4335L86.8425 75.6719L92.7834 80.2299L93.5358 79.2493L95.8398 81.017L95.292 81.7311L93.7115 80.5185L89.2338 86.3547Z" fill="#370B27"/>
<path d="M89.2338 86.3547L89.0981 86.5316L89.275 86.6674L89.4108 86.4904L89.2338 86.3547ZM82.5694 81.2415L82.3924 81.1057L82.2566 81.2827L82.4336 81.4184L82.5694 81.2415ZM83.1537 80.4798L83.2895 80.3029L83.1125 80.1671L82.9768 80.3441L83.1537 80.4798ZM89.0946 85.0379L88.9589 85.2148L89.1358 85.3506L89.2716 85.1736L89.0946 85.0379ZM92.1991 80.9916L92.376 81.1274L92.5118 80.9504L92.3348 80.8146L92.1991 80.9916ZM86.2582 76.4335L86.0812 76.2978L85.9455 76.4747L86.1224 76.6105L86.2582 76.4335ZM86.8425 75.6719L86.9783 75.4949L86.8013 75.3592L86.6656 75.5361L86.8425 75.6719ZM92.7834 80.2299L92.6477 80.4069L92.8246 80.5426L92.9604 80.3657L92.7834 80.2299ZM93.5358 79.2493L93.6716 79.0724L93.4946 78.9366L93.3588 79.1135L93.5358 79.2493ZM95.8398 81.017L96.0168 81.1528L96.1525 80.9758L95.9756 80.8401L95.8398 81.017ZM95.292 81.7311L95.1562 81.908L95.3331 82.0438L95.4689 81.8668L95.292 81.7311ZM93.7115 80.5185L93.8473 80.3416L93.6703 80.2058L93.5346 80.3827L93.7115 80.5185ZM89.2338 86.3547L89.3696 86.1777L82.7051 81.0645L82.5694 81.2415L82.4336 81.4184L89.0981 86.5316L89.2338 86.3547ZM82.5694 81.2415L82.7463 81.3772L83.3307 80.6156L83.1537 80.4798L82.9768 80.3441L82.3924 81.1057L82.5694 81.2415ZM83.1537 80.4798L83.018 80.6568L88.9589 85.2148L89.0946 85.0379L89.2304 84.8609L83.2895 80.3029L83.1537 80.4798ZM89.0946 85.0379L89.2716 85.1736L92.376 81.1274L92.1991 80.9916L92.0221 80.8558L88.9177 84.9021L89.0946 85.0379ZM92.1991 80.9916L92.3348 80.8146L86.3939 76.2566L86.2582 76.4335L86.1224 76.6105L92.0633 81.1685L92.1991 80.9916ZM86.2582 76.4335L86.4351 76.5693L87.0195 75.8076L86.8425 75.6719L86.6656 75.5361L86.0812 76.2978L86.2582 76.4335ZM86.8425 75.6719L86.7068 75.8488L92.6477 80.4069L92.7834 80.2299L92.9192 80.053L86.9783 75.4949L86.8425 75.6719ZM92.7834 80.2299L92.9604 80.3657L93.7127 79.3851L93.5358 79.2493L93.3588 79.1135L92.6065 80.0942L92.7834 80.2299ZM93.5358 79.2493L93.4 79.4263L95.704 81.194L95.8398 81.017L95.9756 80.8401L93.6716 79.0724L93.5358 79.2493ZM95.8398 81.017L95.6629 80.8813L95.115 81.5953L95.292 81.7311L95.4689 81.8668L96.0168 81.1528L95.8398 81.017ZM95.292 81.7311L95.4277 81.5541L93.8473 80.3416L93.7115 80.5185L93.5758 80.6955L95.1562 81.908L95.292 81.7311ZM93.7115 80.5185L93.5346 80.3827L89.0569 86.2189L89.2338 86.3547L89.4108 86.4904L93.8885 80.6543L93.7115 80.5185Z" fill="#370B27" mask="url(#path-35-outside-18_116_282)"/>
<mask id="path-37-outside-19_116_282" maskUnits="userSpaceOnUse" x="88.7652" y="64.0748" width="12.2594" height="11.1477" fill="black">
<rect fill="white" x="88.7652" y="64.0748" width="12.2594" height="11.1477"/>
<path d="M99.95 67.7905L99.5926 68.6815L93.4002 66.1977L97.5511 73.7714L97.2697 74.473L89.4734 71.346L89.8308 70.455L96.0121 72.9343L91.8723 65.3651L92.1537 64.6635L99.95 67.7905Z"/>
</mask>
<path d="M99.95 67.7905L99.5926 68.6815L93.4002 66.1977L97.5511 73.7714L97.2697 74.473L89.4734 71.346L89.8308 70.455L96.0121 72.9343L91.8723 65.3651L92.1537 64.6635L99.95 67.7905Z" fill="#370B27"/>
<path d="M99.95 67.7905L100.157 67.8735L100.24 67.6665L100.033 67.5835L99.95 67.7905ZM99.5926 68.6815L99.5096 68.8885L99.7166 68.9715L99.7996 68.7645L99.5926 68.6815ZM93.4002 66.1977L93.4832 65.9907L92.9054 65.759L93.2046 66.3049L93.4002 66.1977ZM97.5511 73.7714L97.7581 73.8544L97.7973 73.7566L97.7467 73.6642L97.5511 73.7714ZM97.2697 74.473L97.1866 74.68L97.3936 74.763L97.4767 74.556L97.2697 74.473ZM89.4734 71.346L89.2664 71.2629L89.1834 71.4699L89.3904 71.553L89.4734 71.346ZM89.8308 70.455L89.9138 70.248L89.7068 70.1649L89.6238 70.3719L89.8308 70.455ZM96.0121 72.9343L95.9291 73.1413L96.5061 73.3727L96.2078 72.8272L96.0121 72.9343ZM91.8723 65.3651L91.6653 65.2821L91.6261 65.3798L91.6766 65.4721L91.8723 65.3651ZM92.1537 64.6635L92.2368 64.4565L92.0298 64.3734L91.9467 64.5804L92.1537 64.6635ZM99.95 67.7905L99.743 67.7075L99.3856 68.5985L99.5926 68.6815L99.7996 68.7645L100.157 67.8735L99.95 67.7905ZM99.5926 68.6815L99.6756 68.4745L93.4832 65.9907L93.4002 66.1977L93.3171 66.4047L99.5096 68.8885L99.5926 68.6815ZM93.4002 66.1977L93.2046 66.3049L97.3555 73.8785L97.5511 73.7714L97.7467 73.6642L93.5957 66.0905L93.4002 66.1977ZM97.5511 73.7714L97.3441 73.6883L97.0627 74.39L97.2697 74.473L97.4767 74.556L97.7581 73.8544L97.5511 73.7714ZM97.2697 74.473L97.3527 74.266L89.5564 71.139L89.4734 71.346L89.3904 71.553L97.1866 74.68L97.2697 74.473ZM89.4734 71.346L89.6804 71.429L90.0378 70.538L89.8308 70.455L89.6238 70.3719L89.2664 71.2629L89.4734 71.346ZM89.8308 70.455L89.7478 70.662L95.9291 73.1413L96.0121 72.9343L96.0951 72.7273L89.9138 70.248L89.8308 70.455ZM96.0121 72.9343L96.2078 72.8272L92.068 65.2581L91.8723 65.3651L91.6766 65.4721L95.8164 73.0413L96.0121 72.9343ZM91.8723 65.3651L92.0793 65.4481L92.3607 64.7465L92.1537 64.6635L91.9467 64.5804L91.6653 65.2821L91.8723 65.3651ZM92.1537 64.6635L92.0707 64.8705L99.867 67.9975L99.95 67.7905L100.033 67.5835L92.2368 64.4565L92.1537 64.6635Z" fill="#370B27" mask="url(#path-37-outside-19_116_282)"/>
<mask id="path-39-outside-20_116_282" maskUnits="userSpaceOnUse" x="92.3821" y="53.6326" width="10.8822" height="9.13487" fill="black">
<rect fill="white" x="92.3821" y="53.6326" width="10.8822" height="9.13487"/>
<path d="M102.225 55.096L102.11 56.0492L95.4857 55.254L101.456 61.4941L101.366 62.2447L93.0262 61.2435L93.1407 60.2904L99.7532 61.0842L93.7943 54.8455L93.8844 54.0949L102.225 55.096Z"/>
</mask>
<path d="M102.225 55.096L102.11 56.0492L95.4857 55.254L101.456 61.4941L101.366 62.2447L93.0262 61.2435L93.1407 60.2904L99.7532 61.0842L93.7943 54.8455L93.8844 54.0949L102.225 55.096Z" fill="#370B27"/>
<path d="M102.225 55.096L102.446 55.1226L102.473 54.9012L102.251 54.8746L102.225 55.096ZM102.11 56.0492L102.084 56.2706L102.305 56.2972L102.332 56.0758L102.11 56.0492ZM95.4857 55.254L95.5123 55.0325L94.8941 54.9583L95.3245 55.4082L95.4857 55.254ZM101.456 61.4941L101.678 61.5207L101.69 61.4161L101.618 61.3399L101.456 61.4941ZM101.366 62.2447L101.34 62.4662L101.561 62.4927L101.588 62.2713L101.366 62.2447ZM93.0262 61.2435L92.8048 61.2169L92.7782 61.4384L92.9997 61.465L93.0262 61.2435ZM93.1407 60.2904L93.1672 60.0689L92.9458 60.0423L92.9192 60.2638L93.1407 60.2904ZM99.7532 61.0842L99.7266 61.3056L100.344 61.3797L99.9145 60.9301L99.7532 61.0842ZM93.7943 54.8455L93.5729 54.8189L93.5603 54.9234L93.633 54.9995L93.7943 54.8455ZM93.8844 54.0949L93.911 53.8734L93.6896 53.8468L93.663 54.0683L93.8844 54.0949ZM102.225 55.096L102.003 55.0695L101.889 56.0226L102.11 56.0492L102.332 56.0758L102.446 55.1226L102.225 55.096ZM102.11 56.0492L102.137 55.8278L95.5123 55.0325L95.4857 55.254L95.4591 55.4754L102.084 56.2706L102.11 56.0492ZM95.4857 55.254L95.3245 55.4082L101.295 61.6483L101.456 61.4941L101.618 61.3399L95.6468 55.0998L95.4857 55.254ZM101.456 61.4941L101.235 61.4675L101.145 62.2181L101.366 62.2447L101.588 62.2713L101.678 61.5207L101.456 61.4941ZM101.366 62.2447L101.393 62.0233L93.0528 61.0221L93.0262 61.2435L92.9997 61.465L101.34 62.4662L101.366 62.2447ZM93.0262 61.2435L93.2477 61.2701L93.3621 60.317L93.1407 60.2904L92.9192 60.2638L92.8048 61.2169L93.0262 61.2435ZM93.1407 60.2904L93.1141 60.5118L99.7266 61.3056L99.7532 61.0842L99.7798 60.8627L93.1672 60.0689L93.1407 60.2904ZM99.7532 61.0842L99.9145 60.9301L93.9556 54.6914L93.7943 54.8455L93.633 54.9995L99.5919 61.2382L99.7532 61.0842ZM93.7943 54.8455L94.0157 54.872L94.1059 54.1214L93.8844 54.0949L93.663 54.0683L93.5729 54.8189L93.7943 54.8455ZM93.8844 54.0949L93.8578 54.3163L102.198 55.3175L102.225 55.096L102.251 54.8746L93.911 53.8734L93.8844 54.0949Z" fill="#370B27" mask="url(#path-39-outside-20_116_282)"/>
<path d="M69.6678 57.3087C62.4083 57.3087 56.4816 63.7564 53.1495 72.5938V68.0288C53.1495 60.2776 50.1136 57.3087 42.4098 57.3087H33C34.4809 68.6805 42.4069 77.011 53.3717 77.011C63.6671 77.011 72.7037 68.3909 72.7037 60.2776C72.7037 58.1776 71.8151 57.3087 69.6678 57.3087ZM69.5197 38.5477C69.5197 34.3448 68.5571 31.0138 66.7059 31.0138C64.8548 31.0138 62.2602 34.0552 60.0388 38.3305C58.2587 33.2586 56.1114 30 53.89 30C51.6686 30 48.7778 33.2586 46.1121 38.3305C43.9648 33.7655 41.4443 31.4483 39.8152 31.4483C38.4084 31.4483 37.5938 32.8965 37.0015 35.1414C36.4091 37.3862 36.187 40.2132 36.187 42.6029C36.187 50.8609 44.7793 55.4259 53.3717 55.4259C60.7793 55.4259 65.6693 53.1087 67.7426 49.3403C69.3716 46.4437 69.5197 42.965 69.5197 38.5477Z" fill="#370B27"/>
</svg>
