<svg width="184" height="45" viewBox="0 0 184 45" fill="none" xmlns="http://www.w3.org/2000/svg">
<path d="M66.7133 14.144C62.7623 16.4613 60.1839 22.6608 62.9443 27.2954C65.7047 31.9299 72.4236 32.6823 76.3746 30.3575C80.3256 28.0402 82.904 21.8407 80.1436 17.2062C77.3833 12.5716 70.6643 11.8192 66.7133 14.144ZM74.8959 27.8897C73.0986 28.1681 69.9818 27.5136 68.0631 24.2934C66.1445 21.0733 66.9256 18.0714 68.1845 16.6193C69.9742 16.0024 73.0986 16.9955 75.0172 20.2156C76.9358 23.4357 76.3367 26.5355 74.8959 27.8897Z" fill="#370B27"/>
<path d="M54.8068 13.2402H49.2026V31.2744H60.2291V25.1803C57.0516 25.9101 54.8068 28.2123 54.8068 28.2123V13.2402Z" fill="#370B27"/>
<path d="M34.3291 31.2669H39.9333V24.2323H44.309V20.9445H39.9333V16.3174C39.9333 16.3174 42.5875 18.6046 46.4551 19.3871V13.2402H34.3291V31.2744V31.2669Z" fill="#370B27"/>
<path d="M101.579 13.2402C102.027 15.2942 102.065 17.4083 101.686 19.4773L100.601 25.4286L97.5373 13.2478H91.6904C92.1682 15.2942 92.1606 17.4309 91.6525 19.4773L90.1889 25.4361L87.8987 13.2553H81.5361L86.9887 31.2895H91.5615L94.1778 21.4786L96.9913 31.2895H101.837L106.425 13.2553H101.572L101.579 13.2402Z" fill="#370B27"/>
<path d="M127.571 13.2402C128.018 15.2942 128.056 17.4083 127.677 19.4773L126.592 25.4286L123.529 13.2478H117.682C118.159 15.2942 118.152 17.4309 117.644 19.4773L116.18 25.4361L113.89 13.2553H107.527L112.98 31.2895H117.553L120.169 21.4786L122.983 31.2895H127.828L132.416 13.2553H127.563L127.571 13.2402Z" fill="#370B27"/>
<path d="M172.397 13.2402C172.844 15.2942 172.882 17.4083 172.503 19.4773L171.418 25.4286L168.355 13.2478H162.508C162.986 15.2942 162.978 17.4309 162.47 19.4773L161.006 25.4361L158.716 13.2553H152.354L157.806 31.2895H162.379L164.995 21.4786L167.809 31.2895H172.655L177.243 13.2553H172.389L172.397 13.2402Z" fill="#370B27"/>
<path d="M137.586 14.144C133.635 16.4613 131.057 22.6608 133.817 27.2954C136.578 31.9299 143.289 32.6823 147.248 30.3575C151.199 28.0402 153.777 21.8407 151.017 17.2062C148.256 12.5716 141.545 11.8192 137.586 14.144ZM145.769 27.8897C143.972 28.1681 140.855 27.5136 138.936 24.2934C137.018 21.0733 137.799 18.0714 139.058 16.6193C140.847 16.0024 143.972 16.9955 145.89 20.2156C147.809 23.4357 147.21 26.5355 145.769 27.8897Z" fill="#370B27"/>
<path d="M26.5909 24.4257C22.5079 24.4257 19.1746 28.0567 17.3005 33.0335V30.4627C17.3005 26.0977 15.593 24.4257 11.2602 24.4257H5.96777C6.80069 30.8298 11.2585 35.5211 17.4254 35.5211C23.2159 35.5211 28.2984 30.6666 28.2984 26.0977C28.2984 24.9151 27.7986 24.4257 26.5909 24.4257ZM26.5076 13.8605C26.5076 11.4937 25.9662 9.61779 24.925 9.61779C23.8839 9.61779 22.4246 11.3305 21.1752 13.7382C20.1741 10.882 18.9663 9.04688 17.717 9.04688C16.4676 9.04688 14.8417 10.882 13.3425 13.7382C12.1347 11.1674 10.7171 9.86247 9.80087 9.86247C9.0096 9.86247 8.55149 10.6781 8.21832 11.9422C7.88516 13.2064 7.76022 14.7984 7.76022 16.1442C7.76022 20.7947 12.5928 23.3654 17.4254 23.3654C21.5917 23.3654 24.342 22.0605 25.5081 19.9383C26.4243 18.3071 26.5076 16.3481 26.5076 13.8605Z" fill="#370B27"/>
</svg>
