<svg width="51" height="50" viewBox="0 0 51 50" fill="none" xmlns="http://www.w3.org/2000/svg">
<rect x="1" y="0.5" width="49" height="49" rx="24.5" stroke="#370B27"/>
<path d="M34.8782 16.0226L14.2994 22.8839C14.2152 22.9119 14.1414 22.9649 14.088 23.0358C14.0346 23.1068 14.004 23.1923 14.0004 23.281C13.9967 23.3697 14.0201 23.4574 14.0675 23.5325C14.1149 23.6076 14.184 23.6665 14.2657 23.7014L21.8282 26.9426C21.8678 26.9598 21.9112 26.9664 21.9542 26.9618C21.9971 26.9572 22.0381 26.9415 22.0732 26.9164L29.4869 21.6189C29.7169 21.4564 29.9994 21.7389 29.8369 21.9689L24.5394 29.3826C24.5147 29.4177 24.4994 29.4585 24.495 29.5012C24.4907 29.5439 24.4973 29.587 24.5144 29.6264L27.7544 37.1889C27.7892 37.2706 27.848 37.3398 27.923 37.3873C27.998 37.4348 28.0857 37.4583 28.1744 37.4548C28.2631 37.4512 28.3487 37.4208 28.4197 37.3675C28.4907 37.3142 28.5438 37.2406 28.5719 37.1564L35.4332 16.5764C35.459 16.4992 35.4628 16.4164 35.4442 16.3373C35.4255 16.2581 35.3852 16.1857 35.3277 16.1281C35.2702 16.0706 35.1977 16.0303 35.1186 16.0116C35.0394 15.993 34.9553 15.9968 34.8782 16.0226Z" fill="#370B27"/>
</svg>
